<svg data-v-423bf9ae="" xmlns="http://www.w3.org/2000/svg" viewBox="0 0 350.156217370452 60" class="font"><!----><!----><!----><g data-v-423bf9ae="" id="e866a1cc-5aed-4b05-af8a-d09c95bf38bd" fill="black" transform="matrix(6.696427830171911,0,0,6.696427830171911,-1.3392852899655736,-25.513390126619463)"><path d="M1.92 4.44L2.52 4.44L2.52 6.47L3.72 6.47L3.72 6.89L2.52 6.89L2.52 11.34Q2.52 11.77 2.67 12.01Q2.83 12.24 3.25 12.24L3.25 12.24Q3.50 12.24 3.76 11.99Q4.02 11.75 4.12 11.31L4.12 11.31L4.45 11.48Q4.16 12.77 2.77 12.77L2.77 12.77Q1.18 12.77 1.18 11.23L1.18 11.23L1.18 6.89L0.20 6.89L0.20 6.47Q0.85 6.47 1.39 5.92Q1.92 5.38 1.92 4.44L1.92 4.44ZM8.12 12.63L5.10 12.63L5.10 12.33Q5.85 12.33 5.98 12.05L5.98 12.05L5.98 7.32Q5.11 7.25 5.10 7.25L5.10 7.25L5.10 6.93Q5.36 6.93 6.14 6.63Q6.92 6.33 7.24 6.33L7.24 6.33L7.24 6.94Q7.94 6.33 8.62 6.33L8.62 6.33Q9.25 6.33 9.68 6.57Q10.11 6.80 10.11 7.10L10.11 7.10Q10.11 7.60 9.55 7.60L9.55 7.60Q9.25 7.60 9.02 7.20Q8.78 6.80 8.47 6.80L8.47 6.80Q7.92 6.80 7.24 7.41L7.24 7.41L7.24 12.05Q7.36 12.33 8.12 12.33L8.12 12.33L8.12 12.63ZM16.56 9.25L12.07 9.25Q12.08 10.43 12.75 11.33Q13.41 12.24 14.24 12.24L14.24 12.24Q15.46 12.24 16.20 11.31L16.20 11.31L16.53 11.48Q16.13 12.15 15.48 12.46Q14.83 12.77 13.76 12.77L13.76 12.77Q13.23 12.77 12.74 12.61Q12.25 12.45 11.77 12.07Q11.30 11.70 11.02 10.98Q10.74 10.25 10.74 9.24L10.74 9.24Q10.74 8.01 11.50 7.17Q12.26 6.33 13.62 6.33L13.62 6.33Q15.11 6.33 15.83 7.16Q16.56 7.99 16.56 9.25L16.56 9.25ZM12.08 8.82L12.08 8.82L15.19 8.82Q15.11 7.81 14.76 7.28Q14.42 6.75 13.57 6.75L13.57 6.75Q13.08 6.75 12.62 7.32Q12.17 7.90 12.08 8.82ZM20.55 12.63L17.53 12.63L17.53 12.33Q18.28 12.33 18.41 12.05L18.41 12.05L18.41 7.32Q17.54 7.25 17.53 7.25L17.53 7.25L17.53 6.93Q17.79 6.93 18.57 6.63Q19.35 6.33 19.67 6.33L19.67 6.33L19.67 6.97Q20.43 6.33 21.34 6.33L21.34 6.33Q22.64 6.33 23.22 6.81Q23.80 7.29 23.80 8.32L23.80 8.32L23.80 12.05Q23.93 12.33 24.68 12.33L24.68 12.33L24.68 12.63L21.66 12.63L21.66 12.33Q22.41 12.33 22.54 12.05L22.54 12.05L22.54 8.22Q22.54 6.80 21.25 6.80L21.25 6.80Q20.37 6.80 19.67 7.42L19.67 7.42L19.67 12.05Q19.80 12.33 20.55 12.33L20.55 12.33L20.55 12.63ZM30.00 6.61L30.00 6.61L30.00 4.80Q30.00 4.80 29.12 4.73L29.12 4.73L29.12 4.41Q29.39 4.41 30.16 4.11Q30.94 3.81 31.26 3.81L31.26 3.81L31.26 11.77L32.14 11.84L32.14 12.17Q31.88 12.17 31.10 12.47Q30.32 12.77 30.00 12.77L30.00 12.77L30.00 12.31Q29.33 12.77 28.32 12.77L28.32 12.77Q27.86 12.77 27.41 12.61Q26.95 12.45 26.50 12.10Q26.04 11.76 25.75 11.09Q25.47 10.42 25.47 9.52L25.47 9.52Q25.47 7.95 26.34 7.11Q27.22 6.27 28.63 6.27L28.63 6.27Q29.43 6.27 30.00 6.61ZM30.00 11.84L30.00 7.04Q29.50 6.75 28.71 6.75L28.71 6.75Q27.94 6.75 27.37 7.49Q26.80 8.23 26.80 9.52L26.80 9.52Q26.80 10.37 27.29 11.33Q27.79 12.29 28.46 12.29L28.46 12.29Q29.39 12.29 30.00 11.84L30.00 11.84ZM34.33 9.16L34.33 9.16Q34.33 10.75 34.94 11.55Q35.55 12.35 36.50 12.35L36.50 12.35Q37.25 12.35 37.72 11.67Q38.18 10.99 38.18 9.93L38.18 9.93Q38.18 6.76 35.98 6.76L35.98 6.76Q35.24 6.76 34.78 7.47Q34.33 8.18 34.33 9.16ZM36.32 12.77L36.32 12.77Q34.75 12.77 33.87 11.85Q32.98 10.93 32.98 9.44L32.98 9.44Q32.98 8.08 33.78 7.20Q34.58 6.33 36.22 6.33L36.22 6.33Q37.87 6.33 38.70 7.20Q39.52 8.08 39.52 9.60L39.52 9.60Q39.52 10.96 38.73 11.87Q37.94 12.77 36.32 12.77ZM43.53 12.63L40.50 12.63L40.50 12.33Q41.26 12.33 41.38 12.05L41.38 12.05L41.38 7.32Q40.52 7.25 40.50 7.25L40.50 7.25L40.50 6.93Q40.77 6.93 41.55 6.63Q42.32 6.33 42.64 6.33L42.64 6.33L42.64 6.94Q43.34 6.33 44.03 6.33L44.03 6.33Q44.66 6.33 45.09 6.57Q45.51 6.80 45.51 7.10L45.51 7.10Q45.51 7.60 44.95 7.60L44.95 7.60Q44.66 7.60 44.42 7.20Q44.18 6.80 43.88 6.80L43.88 6.80Q43.33 6.80 42.64 7.41L42.64 7.41L42.64 12.05Q42.77 12.33 43.53 12.33L43.53 12.33L43.53 12.63ZM47.17 7.50L47.17 7.50Q47.36 7.50 47.51 7.64Q47.66 7.78 47.66 8.08L47.66 8.08Q47.66 8.32 47.47 8.44Q47.28 8.57 47.03 8.57L47.03 8.57Q46.76 8.57 46.59 8.38Q46.42 8.19 46.42 7.87L46.42 7.87Q46.42 7.14 47.03 6.73Q47.63 6.33 48.73 6.33L48.73 6.33Q50.04 6.33 50.65 6.97Q51.25 7.62 51.25 8.68L51.25 8.68L51.25 11.45Q51.25 11.90 51.40 12.11Q51.55 12.32 51.76 12.32L51.76 12.32Q51.94 12.32 52.09 12.22Q52.23 12.12 52.23 11.98L52.23 11.98L52.49 11.98Q52.49 12.38 52.20 12.56Q51.91 12.74 51.20 12.74L51.20 12.74Q50.50 12.74 50.20 12.17L50.20 12.17Q49.38 12.77 48.15 12.77L48.15 12.77Q46.05 12.77 46.05 11.06L46.05 11.06Q46.05 10.70 46.31 10.40Q46.56 10.11 47.05 9.91Q47.54 9.72 47.98 9.60Q48.41 9.48 49.06 9.33Q49.71 9.18 49.99 9.10L49.99 9.10Q49.99 7.92 49.69 7.38Q49.38 6.83 48.59 6.83L48.59 6.83Q47.33 6.83 47.17 7.50ZM50.08 11.82L50.08 11.82Q49.99 11.51 49.99 11.06L49.99 11.06L49.99 9.41Q49.84 9.46 49.47 9.56Q49.10 9.66 48.87 9.73Q48.64 9.80 48.31 9.94Q47.99 10.08 47.81 10.22Q47.63 10.36 47.49 10.59Q47.35 10.82 47.35 11.09L47.35 11.09Q47.35 11.76 47.61 12.03Q47.87 12.29 48.38 12.29L48.38 12.29Q49.31 12.29 50.08 11.82Z"></path></g><!----><!----></svg>